{"title":"Hoodwinked Too! Hood VS Evil 2011 DVD9rip Dutch Klam","uid":7155949,"size":1362133562,"categoryP":"video","categoryS":"movies","magnet":"?xt=urn:btih:a3bededeb696d446afc34ce428d85fb3f816e3b1&amp;dn=Hoodwinked+Too%21+Hood+VS+Evil+2011+DVD9rip+Dutch+Klam&amp;tr=udp%3A%2F%2Ftracker.openbittorrent.com%3A80&amp;tr=udp%3A%2F%2Fopen.demonii.com%3A1337&amp;tr=udp%3A%2F%2Ftracker.coppersurfer.tk%3A6969&amp;tr=udp%3A%2F%2Fexodus.desync.com%3A6969","seeders":1,"leechers":0,"uploader":"Klambake","files":-1,"time":1333452304,"description":"Nederlands gesproken,\nmet bekende Nederlandse stemmen.\nHet verhaal draait om de mysterieuze verdwijning van Hans en Grietje. Op het moment van de verdwijning bevindt Roodkapje zich in een verafgelegen land in een geheim trainingskamp, waar ze traint met de 'Sister Hoods'. Wanneer ze samen met de Wolf wordt opgeroepen om de verdachte verdwijning te onderzoeken, gaan ze op stap om Hans en Grietje te redden. Dat gaat echter niet zonder obstakels.\n\nDutch spoken,\nRed Riding Hood is training in the group of Sister Hoods, when she and the Wolf are called to examine the sudden mysterious disappearance of Hansel and Gretel.\n\n------------------------ Dutch Friends ------------------------\n---------------------------------------------------------------\n- Bezoek ook eens mijn vrienden op: &lt;a href=&quot; http://www.Film-Test.nl&quot; rel=&quot;nofollow&quot; target=&quot;_NEW&quot;&gt; http://www.Film-Test.nl&lt;/a&gt; --\n----- voor mijn Nederlandse Sync. ondertitels ---- en meer ----\n------- http://www.Film-Test.nl ---- voor Films en meer -------\n---------------------------------------------------------------\n\nGeneral:\n\nComplete name                    : Hoodwinked Too!HoodWinked Too.avi\nFormat                           : AVI\nFormat/Info                      : Audio Video Interleave\nFile size                        : 1.27 GiB\nDuration                         : 1h 22mn\nOverall bit rate                 : 2 192 Kbps\n\nVideo:\n\nFormat                           : MPEG-4 Visual\nFormat profile                   : Simple@L3\nFormat settings, BVOP            : No\nFormat settings, QPel            : No\nFormat settings, GMC             : No warppoints\nFormat settings, Matrix          : Default (H.263)\nCodec ID                         : XVID\nCodec ID/Hint                    : XviD\nDuration                         : 1h 22mn\nBit rate                         : 1 797 Kbps\nWidth                            : 652 pixels\nHeight                           : 352 pixels\nDisplay aspect ratio             : 1.852\nFrame rate                       : 25.000 fps\nColor space                      : YUV\nChroma subsampling               : 4:2:0\nBit depth                        : 8 bits\nScan type                        : Progressive\nCompression mode                 : Lossy\nBits/(Pixel*Frame)               : 0.313\nStream size                      : 1.04 GiB (82%)\nWriting library                  : XviD 1.1.2 (UTC 2006-11-01)\n\nAudio:\n\nFormat                           : AC-3\nFormat/Info                      : Audio Coding 3\nMode extension                   : CM (complete main)\nCodec ID                         : 2000\nDuration                         : 1h 22mn\nBit rate mode                    : Constant\nBit rate                         : 384 Kbps\nChannel(s)                       : 6 channels\nChannel positions                : Front: L C R, Side: L R, LFE\nSampling rate                    : 48.0 KHz\nBit depth                        : 16 bits\nCompression mode                 : Lossy\nStream size                      : 228 MiB (18%)\nAlignment                        : Aligned on interleaves\nInterleave, duration             : 32 ms (0.80 video frame)\nInterleave, preload duration     : 512 ms\n\n","torrent":{"xt":"urn:btih:a3bededeb696d446afc34ce428d85fb3f816e3b1","amp;dn":"Hoodwinked+Too%21+Hood+VS+Evil+2011+DVD9rip+Dutch+Klam","amp;tr":["udp%3A%2F%2Ftracker.openbittorrent.com%3A80","udp%3A%2F%2Fopen.demonii.com%3A1337","udp%3A%2F%2Ftracker.coppersurfer.tk%3A6969","udp%3A%2F%2Fexodus.desync.com%3A6969"],"infoHash":"a3bededeb696d446afc34ce428d85fb3f816e3b1","infoHashBuffer":{"type":"Buffer","data":[163,190,222,222,182,150,212,70,175,195,76,228,40,216,95,179,248,22,227,177]},"announce":[],"urlList":[]}}